<?xml version="1.0" standalone="no"?>
<!DOCTYPE svg PUBLIC "-//W3C//DTD SVG 20010904//EN"
 "http://www.w3.org/TR/2001/REC-SVG-20010904/DTD/svg10.dtd">
<svg version="1.0" xmlns="http://www.w3.org/2000/svg"
 width="500.000000pt" height="500.000000pt" viewBox="0 0 500.000000 500.000000"
 preserveAspectRatio="xMidYMid meet">

<g transform="translate(0.000000,500.000000) scale(0.100000,-0.100000)"
fill="#000000" stroke="none">
<path d="M1919 4244 c-53 -16 -109 -71 -109 -107 0 -30 -8 -39 -53 -62 -60
-31 -90 -72 -83 -113 3 -19 12 -42 21 -52 14 -16 14 -19 -8 -33 -14 -9 -27
-27 -29 -41 -11 -54 49 -96 138 -96 53 0 60 3 113 48 78 66 99 78 172 97 46
12 93 16 166 13 89 -3 102 -1 98 12 -4 12 4 15 35 15 90 0 137 111 74 176 -15
16 -34 29 -41 29 -8 0 -32 18 -53 40 -60 61 -121 76 -191 46 -31 -13 -36 -13
-56 6 -21 19 -84 37 -128 37 -11 0 -41 -7 -66 -15z m345 -264 c18 0 40 -6 49
-12 14 -11 -4 -13 -101 -13 -106 0 -124 -3 -190 -29 -42 -17 -91 -47 -119 -72
-47 -42 -79 -57 -71 -32 8 23 127 106 182 127 30 11 76 23 103 27 26 3 50 8
53 11 3 2 18 2 34 -1 16 -3 43 -6 60 -6z"/>
<path d="M2105 3861 c-52 -9 -159 -69 -207 -116 -21 -21 -38 -41 -38 -45 0 -4
-9 -10 -20 -13 -28 -7 -41 -48 -29 -90 11 -40 31 -61 79 -80 35 -14 43 -14 88
-1 13 4 22 2 22 -5 0 -6 9 -20 21 -32 16 -16 20 -28 15 -55 -7 -36 -67 -114
-103 -134 l-21 -12 26 -67 c22 -57 26 -81 26 -171 0 -95 -3 -111 -29 -164 -30
-60 -91 -118 -167 -157 -21 -11 -38 -25 -38 -32 -1 -32 -16 -38 -53 -22 -20 8
-37 19 -37 23 0 15 95 87 112 84 9 -2 36 7 59 19 97 49 146 140 134 246 -7 55
-58 197 -75 208 -12 7 -204 -90 -264 -134 -29 -22 -63 -55 -74 -73 -31 -50
-147 -392 -165 -485 -5 -27 -3 -33 16 -39 12 -4 45 -17 72 -30 28 -13 94 -41
149 -63 96 -38 125 -55 114 -66 -3 -3 -41 3 -84 13 -149 37 -137 37 -129 5 11
-45 66 -183 72 -183 4 0 39 27 80 60 79 65 86 63 64 -20 -6 -19 -15 -54 -21
-78 -10 -38 -13 -42 -27 -30 -54 45 -231 -16 -233 -80 0 -7 -7 -15 -15 -18 -8
-4 -15 -11 -15 -18 -1 -6 -16 -29 -34 -50 l-34 -39 -17 26 c-9 15 -24 27 -31
27 -8 0 -15 11 -16 28 -2 38 -1 44 7 67 5 13 -8 5 -36 -22 -37 -35 -46 -39
-56 -28 -7 8 -13 18 -13 23 0 9 -108 46 -168 57 -19 4 -88 1 -154 -6 -198 -20
-213 -42 -204 -284 9 -218 15 -283 37 -349 10 -33 19 -72 19 -86 0 -40 22 -53
76 -47 25 2 48 8 52 11 3 4 4 30 2 59 -2 29 -4 85 -4 126 l-1 75 88 35 c49 20
92 43 97 51 12 22 -8 43 -58 63 -50 20 -66 21 -56 5 4 -7 3 -8 -4 -4 -7 4 -27
3 -46 -3 l-35 -9 -3 106 c-2 61 1 113 7 121 20 28 74 41 167 41 51 -1 119 -6
150 -13 l57 -12 -19 -52 c-31 -88 -32 -172 -4 -313 34 -169 70 -228 174 -282
35 -18 61 -23 115 -23 60 0 81 5 145 36 122 60 166 118 186 249 l7 44 24 -89
c26 -97 52 -138 122 -192 84 -65 179 -68 302 -10 123 58 160 113 190 277 13
74 17 267 6 323 -8 36 -7 37 22 37 33 0 51 -18 31 -30 -9 -6 -9 -9 0 -12 8 -2
11 -54 11 -193 -2 -290 -8 -376 -32 -401 -27 -29 -24 -44 9 -39 52 8 117 17
162 22 69 8 226 51 257 70 64 40 98 71 142 129 l47 62 18 -68 c20 -80 70 -144
144 -188 40 -23 58 -27 122 -27 65 1 85 5 150 37 119 57 165 121 186 256 l7
44 23 -93 c26 -101 51 -141 123 -196 84 -65 179 -68 302 -10 122 58 160 112
190 277 20 106 16 295 -6 357 -25 71 -118 156 -173 160 -76 5 -180 -49 -182
-94 0 -7 -9 -17 -20 -23 -11 -6 -18 -15 -15 -20 3 -5 -1 -12 -8 -17 -8 -4 -22
-21 -32 -37 l-19 -28 -21 24 c-11 13 -29 27 -39 31 -16 6 -18 14 -12 54 l6 47
-31 -30 c-17 -16 -41 -51 -53 -77 l-22 -48 -18 55 c-25 73 -117 159 -174 163
-76 5 -180 -49 -182 -94 0 -7 -9 -17 -20 -23 -11 -6 -18 -15 -15 -20 3 -5 -1
-12 -8 -17 -8 -4 -22 -21 -32 -37 l-19 -28 -21 24 c-11 13 -29 27 -39 31 -16
6 -18 14 -12 54 l6 47 -35 -34 c-37 -36 -89 -152 -92 -205 0 -16 -2 -41 -2
-55 -1 -21 -6 -17 -31 27 -16 28 -34 54 -40 58 -5 3 -10 13 -10 22 0 17 -37
53 -82 81 -27 16 -37 32 -20 32 4 0 38 24 74 54 78 64 148 171 173 263 21 77
18 227 -7 264 -8 13 -17 46 -21 74 -9 85 -81 121 -139 68 -24 -21 -43 -88 -47
-165 -1 -11 -9 -18 -20 -18 -10 0 -37 -7 -60 -15 -39 -13 -41 -13 -52 7 -6 12
-10 71 -10 145 2 160 -7 178 -81 171 -31 -3 -57 -13 -69 -25 -20 -20 -27 -72
-15 -110 4 -13 4 -32 1 -43 -6 -17 -17 -9 -83 62 -42 45 -76 89 -74 97 1 9 7
48 13 86 6 39 12 79 14 90 2 11 4 35 4 53 l1 34 86 -7 c80 -6 86 -5 91 13 4
16 19 22 80 31 41 6 79 14 84 17 5 3 9 22 9 42 0 63 45 103 78 70 15 -15 16
-193 1 -235 -6 -19 -32 -46 -69 -73 l-58 -42 15 -44 c8 -24 18 -44 23 -44 4 0
5 -11 2 -25 -3 -20 0 -25 17 -25 11 0 21 -4 21 -10 0 -20 56 -8 115 24 l60 33
13 79 c16 91 5 241 -26 358 l-18 70 -109 18 c-61 9 -123 20 -140 23 -122 22
-365 12 -419 -18 -20 -10 -19 -11 14 -18 44 -9 93 -64 110 -123 19 -69 7 -74
-24 -12 -30 60 -103 132 -143 142 -35 9 -31 44 6 44 15 0 43 5 62 12 81 27
119 81 119 166 0 41 -7 59 -40 108 -22 33 -40 64 -40 70 0 37 -63 40 -73 4 -3
-11 -12 -20 -21 -20 -10 0 -13 6 -9 18 11 32 25 42 58 42 l34 0 -17 39 c-15
35 -21 40 -61 45 -54 7 -162 6 -216 -3z m81 -130 c7 0 15 -8 18 -17 5 -14 4
-15 -8 -5 -21 18 -67 9 -80 -14 -23 -41 -56 -48 -56 -11 0 43 38 57 126 47z
m216 -590 c16 -35 28 -64 26 -66 -2 -2 -79 -8 -173 -14 -93 -6 -185 -13 -202
-16 -31 -4 -33 -2 -33 28 0 18 -4 49 -9 70 -8 34 -7 38 7 32 35 -14 140 -17
176 -5 46 15 96 56 96 79 0 10 3 21 8 25 12 13 73 -65 104 -133z m303 -412 c2
-30 4 -60 4 -68 1 -8 8 -4 21 10 28 34 25 12 -4 -26 -13 -17 -26 -42 -29 -56
-3 -19 -5 -17 -6 9 0 18 -13 54 -27 80 l-26 47 26 -28 26 -28 0 62 c0 75 10
73 15 -2z m-727 -11 c51 -39 53 -43 31 -46 -13 -2 -31 -10 -39 -18 -38 -33
-132 53 -100 91 21 25 50 17 108 -27z m274 15 c17 -15 17 -17 2 -35 -25 -27
-34 -22 -34 17 0 39 5 42 32 18z m68 -68 c0 -30 -19 -40 -56 -31 l-27 7 23 25
c31 32 60 32 60 -1z m50 -20 c10 -13 9 -15 -9 -15 -12 0 -21 6 -21 15 0 8 4
15 9 15 5 0 14 -7 21 -15z m668 -30 l-4 -35 28 27 c15 15 28 22 28 17 0 -13
-38 -54 -50 -54 -6 0 -10 -11 -10 -24 0 -36 -41 -89 -76 -98 -16 -4 -50 -4
-75 1 l-44 9 53 1 c45 1 52 4 52 21 0 11 5 20 11 20 7 0 9 -9 6 -21 -4 -15 -1
-19 11 -17 23 4 45 53 49 113 5 57 10 75 19 75 3 0 4 -16 2 -35z m-408 -65 c0
-13 -5 -18 -15 -14 -8 4 -15 12 -15 20 0 8 7 14 15 14 8 0 15 -9 15 -20z m50
0 c13 -9 13 -11 0 -20 -22 -15 -30 -12 -30 10 0 22 8 25 30 10z m-234 -45 c7
-19 13 -45 13 -57 -1 -14 -3 -17 -6 -7 -2 9 -27 20 -66 29 -38 8 -54 15 -40
17 12 3 38 0 58 -6 38 -10 39 -9 18 47 -12 29 9 9 23 -23z m-162 -20 c37 -25
78 -45 91 -45 36 0 106 -28 157 -63 51 -34 65 -64 26 -53 -69 19 -74 19 -38
-4 35 -23 62 -52 54 -59 -2 -3 -14 5 -27 16 -35 32 -54 39 -29 11 42 -46 4
-43 -70 6 -30 20 -34 16 -18 -15 9 -17 7 -19 -17 -19 -21 1 -36 11 -60 45 -18
24 -33 51 -33 59 0 8 -15 25 -32 37 -18 13 -35 26 -38 29 -3 3 -21 17 -40 30
-19 13 -37 25 -39 27 -4 2 38 43 44 43 1 0 33 -20 69 -45z m436 15 c0 -5 -6
-10 -14 -10 -8 0 -18 5 -21 10 -3 6 3 10 14 10 12 0 21 -4 21 -10z m-97 -81
c3 11 9 21 15 21 13 0 3 -47 -14 -61 -8 -7 -14 -31 -14 -60 0 -28 -5 -49 -11
-49 -5 0 -8 12 -6 28 2 15 1 53 -3 85 -6 56 -6 58 10 36 l17 -22 6 22z m217
-9 c0 -11 -4 -20 -10 -20 -5 0 -10 2 -10 4 0 2 -3 11 -6 20 -4 11 -1 16 10 16
9 0 16 -8 16 -20z m-37 -51 c-32 -13 -43 -9 -43 14 0 35 11 40 37 15 22 -21
23 -23 6 -29z m-543 10 c0 -5 -7 -9 -15 -9 -9 0 -15 9 -15 21 0 18 2 19 15 9
8 -7 15 -16 15 -21z m26 -35 c-3 -9 -6 -20 -6 -25 0 -5 -9 -9 -20 -9 -22 0
-26 20 -8 38 18 18 41 15 34 -4z m-566 2 c0 -6 -111 -66 -121 -66 -3 0 -9 8
-12 18 -2 9 -8 25 -12 35 -6 15 0 17 69 17 42 0 76 -2 76 -4z m600 -32 c0 -8
-4 -12 -10 -9 -5 3 -10 10 -10 16 0 5 5 9 10 9 6 0 10 -7 10 -16z m-516 -186
c14 -32 33 -65 43 -75 17 -17 17 -20 -8 -69 l-26 -51 -11 42 c-6 24 -23 56
-37 73 -26 32 -29 52 -18 142 l6 54 13 -29 c7 -17 25 -56 38 -87z m261 -94
c-11 -8 -20 -18 -20 -23 0 -4 -8 -15 -18 -25 -9 -10 -22 -27 -28 -39 l-12 -21
-21 25 c-12 14 -30 28 -39 32 -17 6 -24 47 -10 60 3 4 43 7 87 7 74 -1 79 -2
61 -16z m-421 -37 c14 -10 20 -35 26 -113 5 -54 12 -120 16 -146 8 -55 -16
-168 -49 -238 -30 -61 -93 -100 -167 -101 -50 -2 -56 1 -83 32 -48 56 -59 92
-59 181 0 39 7 72 25 110 13 29 34 74 45 99 28 61 102 142 154 168 50 24 67
26 92 8z m639 1 c13 -10 20 -43 29 -138 18 -184 15 -225 -24 -321 -29 -74 -38
-87 -78 -111 -34 -21 -60 -29 -100 -29 -52 -2 -56 0 -92 42 -43 50 -63 119
-55 188 8 71 88 232 144 292 45 48 107 87 144 88 8 1 23 -5 32 -11z m1280 0
c13 -10 20 -43 29 -138 18 -184 15 -225 -24 -321 -29 -74 -38 -87 -78 -111
-34 -21 -60 -29 -100 -29 -52 -2 -56 0 -92 42 -43 50 -63 119 -55 188 8 71 88
232 144 292 45 48 107 87 144 88 8 1 23 -5 32 -11z m640 0 c13 -10 20 -43 29
-138 18 -184 15 -225 -24 -321 -29 -74 -38 -87 -78 -111 -34 -21 -60 -29 -100
-29 -52 -2 -56 0 -92 42 -43 50 -63 119 -55 188 8 71 88 232 144 292 45 48
107 87 144 88 8 1 23 -5 32 -11z m-1370 -105 c122 -114 116 -103 108 -213 -4
-52 -13 -105 -19 -117 -20 -37 -138 -115 -203 -133 -27 -8 -28 -7 -33 38 -4
26 -4 58 -1 72 4 20 16 341 15 413 0 12 8 17 25 17 18 0 50 -23 108 -77z m124
-215 c-3 -7 -5 -2 -5 12 0 14 2 19 5 13 2 -7 2 -19 0 -25z"/>
<path d="M2790 3040 c0 -24 25 -66 44 -73 9 -4 12 8 11 42 -1 42 -3 46 -28 49
-22 3 -27 -1 -27 -18z"/>
<path d="M2593 2945 c-17 -7 -38 -26 -46 -42 -17 -33 -31 -93 -22 -93 11 0 62
29 141 79 77 50 78 50 50 61 -37 14 -84 12 -123 -5z m34 -52 c-3 -3 -11 -2
-17 2 -8 5 -7 11 2 22 12 15 13 14 16 -1 2 -10 1 -20 -1 -23z"/>
<path d="M1947 1164 c-1 -1 -74 -4 -162 -8 -352 -14 -483 -31 -548 -73 -46
-30 -87 -72 -87 -90 0 -6 -12 -15 -27 -22 -20 -9 -24 -14 -14 -21 9 -5 11 -17
7 -33 -4 -17 -1 -30 9 -39 35 -31 45 -38 59 -38 8 0 16 -5 18 -10 8 -24 196
-29 383 -12 92 9 604 6 685 -3 44 -6 447 -5 520 1 91 6 438 6 449 -1 6 -3 27
-1 48 4 26 7 41 7 50 -1 9 -7 62 -9 176 -4 252 12 289 22 322 95 17 38 17 42
2 59 -16 17 -15 20 6 40 13 12 27 22 33 22 5 0 10 20 12 45 2 41 0 46 -25 56
-16 6 -143 12 -298 15 -148 2 -310 8 -360 13 -49 5 -243 6 -430 3 -472 -7
-490 -7 -668 -2 -87 3 -159 4 -160 4z m-7 -68 c0 -18 -15 -36 -31 -36 -15 0
-19 -7 -19 -37 0 -57 -10 -83 -31 -83 -17 0 -18 6 -12 60 5 52 4 60 -11 60 -9
0 -16 8 -16 20 0 18 7 20 60 20 33 0 60 -2 60 -4z m652 -26 c-3 -20 -10 -30
-21 -30 -11 0 -32 -26 -57 -71 -36 -66 -57 -89 -70 -77 -3 3 1 17 7 31 9 21 8
34 -5 67 -20 51 -20 50 5 50 12 0 23 -8 26 -20 7 -25 20 -26 28 -1 3 11 16 21
28 23 16 2 23 11 25 31 2 18 9 27 21 27 14 0 17 -6 13 -30z m278 10 c0 -16 -7
-20 -35 -20 -19 0 -35 -4 -35 -10 0 -5 11 -10 23 -10 29 0 37 -7 30 -26 -3 -8
-18 -14 -34 -14 -26 0 -29 -4 -29 -30 0 -24 -4 -30 -21 -30 -20 0 -21 3 -14
73 4 39 9 75 12 80 2 4 26 7 54 7 42 0 49 -3 49 -20z m630 -16 c0 -14 -21 -19
-33 -7 -9 9 13 34 24 27 5 -3 9 -12 9 -20z m70 -4 c0 -11 5 -20 10 -20 6 0 10
-7 10 -15 0 -8 -7 -15 -15 -15 -10 0 -15 -11 -15 -35 0 -29 -4 -35 -21 -35
-18 0 -21 5 -17 35 2 19 -1 36 -7 39 -6 2 -6 8 3 17 6 7 12 21 12 31 0 11 7
18 20 18 13 0 20 -7 20 -20z m-2224 -46 l7 -26 16 26 c8 14 24 26 34 26 16 0
13 -10 -22 -72 -27 -50 -46 -74 -61 -76 -21 -3 -21 -3 -5 27 14 28 14 34 0 67
-20 47 -19 54 5 54 13 0 22 -9 26 -26z m170 1 c15 -23 15 -27 0 -49 -21 -33
-52 -41 -81 -22 -29 19 -32 42 -9 74 22 31 69 30 90 -3z m64 -10 c0 -19 4 -35
9 -35 11 0 21 25 21 51 0 13 7 19 21 19 19 0 20 -4 13 -47 -3 -27 -7 -49 -8
-50 -1 -1 -22 -3 -46 -5 -43 -3 -45 -2 -48 26 -5 41 6 76 23 76 10 0 15 -11
15 -35z m163 14 c-3 -11 -12 -19 -19 -19 -8 0 -17 -13 -20 -30 -5 -21 -12 -30
-26 -30 -18 0 -20 5 -14 31 3 17 6 40 6 50 0 14 8 18 39 17 33 0 38 -3 34 -19z
m237 -14 c0 -19 4 -35 9 -35 11 0 21 25 21 51 0 13 7 19 21 19 19 0 20 -4 13
-47 -3 -27 -7 -49 -8 -50 -1 -1 -22 -3 -46 -5 -43 -3 -45 -2 -48 26 -5 41 6
76 23 76 10 0 15 -11 15 -35z m248 6 c6 -38 -7 -71 -26 -71 -15 0 -17 7 -14
36 5 44 -13 39 -23 -6 -4 -20 -13 -30 -25 -30 -16 0 -18 6 -14 38 5 35 5 36
-10 18 -9 -11 -16 -28 -16 -38 0 -12 -7 -18 -21 -18 -19 0 -21 4 -15 31 3 17
6 40 6 50 0 18 7 19 78 17 72 -3 77 -4 80 -27z m185 16 c2 -7 2 -29 -1 -49 -3
-30 -9 -38 -24 -38 -18 0 -20 5 -15 35 3 19 2 35 -3 35 -10 0 -20 -25 -20 -51
0 -12 -7 -19 -20 -19 -16 0 -20 7 -20 37 0 40 -16 35 -22 -7 -2 -14 -11 -26
-20 -28 -14 -3 -18 4 -18 31 0 61 4 64 85 65 48 0 75 -3 78 -11z m252 3 c3 -6
-4 -14 -16 -18 -19 -7 -20 -10 -6 -15 23 -9 22 -44 -1 -56 -24 -13 -62 -3 -62
16 0 11 7 14 23 10 20 -5 20 -5 5 7 -18 13 -24 47 -11 59 10 11 61 8 68 -3z
m321 -38 c-3 -25 -7 -46 -9 -47 -1 -1 -18 -5 -39 -9 -41 -7 -68 11 -68 46 0
37 28 57 77 56 l45 -1 -6 -45z m63 26 l8 -23 7 23 c7 22 46 32 46 12 0 -13
-53 -89 -62 -90 -8 0 -32 43 -42 78 -6 18 -4 22 14 22 12 0 24 -9 29 -22z
m165 6 c9 -8 16 -24 16 -35 0 -25 -35 -59 -60 -59 -22 0 -60 33 -60 53 0 47
70 75 104 41z m70 -20 c-5 -29 -4 -36 7 -32 8 2 15 19 17 36 3 25 8 32 24 32
19 0 20 -4 14 -47 -3 -25 -7 -47 -9 -48 -1 -1 -18 -5 -37 -9 -52 -9 -64 3 -56
58 6 37 11 46 27 46 17 0 19 -4 13 -36z m166 26 c0 -4 -11 -19 -25 -34 -14
-15 -25 -34 -25 -42 0 -8 -9 -14 -21 -14 -15 0 -19 4 -15 16 3 9 6 31 6 49 0
33 1 34 40 33 22 0 40 -4 40 -8z m50 -2 c0 -7 -3 -30 -6 -50 -5 -29 -11 -38
-27 -38 -17 0 -19 5 -13 31 3 17 6 40 6 50 0 12 7 19 20 19 11 0 20 -6 20 -12z
m194 -10 c18 -25 13 -38 -17 -39 -12 0 -16 -3 -9 -6 19 -7 14 -31 -8 -38 -47
-15 -83 38 -56 80 21 32 69 34 90 3z"/>
<path d="M1457 1004 c-14 -14 -7 -35 11 -32 9 2 17 10 17 17 0 16 -18 25 -28
15z"/>
<path d="M2917 1004 c-14 -14 -7 -35 11 -32 9 2 17 10 17 17 0 16 -18 25 -28
15z"/>
<path d="M3155 1001 c-8 -15 3 -31 21 -31 9 0 14 7 12 17 -4 20 -24 28 -33 14z"/>
</g>
</svg>
